# xmcd CD database file
#
# Track frame offsets:
#	183
#	17985
#	33160
#	45968
#	66315
#	80935
#	93835
#	107465
#	126138
#	146588
#	161418
#	177250
#	191845
#
# Disc length: 2747 seconds
#
# Revision: 0
# Processed by: cddbd v1.5.2PL0 Copyright (c) Steve Scherf et al.
# Submitted via: CDex 1.51
#
DISCID=a90ab90d
DTITLE=Various Artist - Jazz In New York
DYEAR=1944
DGENRE=Jazz
TTITLE0=Bobby Hackett and His Orchestra - At Sundown
TTITLE1=Bobby Hackett and His Orchestra - New Orleans
TTITLE2=Bobby Hackett and His Orchestra - Skeleton Jangle
TTITLE3=Bobby Hackett and His Orchestra - When Day is Done
TTITLE4=Bobby Hackett and His Orchestra - Soon
TTITLE5=Muggsy Spanier and His Ragtimers - Angry
TTITLE6=Muggsy Spanier and His Ragtimers - Weary Blues
TTITLE7=Miff Mole and His Nicksieland Band - St. Louis Blues
TTITLE8=Miff Mole and His Nicksieland Band - Peg O' My Heart
TTITLE9=Miff Mole and His Nicksieland Band - Beale Street Blues
TTITLE10=Miff Mole and His Nicksieland Band - I Must Have That Man
TTITLE11=Muggsy Spanier and His Ragtimers - Snag It
TTITLE12=Muggsy Spanier and His Ragtimers - Alice Blue Gown
EXTD=YEAR: 1944
EXTT0=
EXTT1=
EXTT2=
EXTT3=
EXTT4=
EXTT5=
EXTT6=
EXTT7=
EXTT8=
EXTT9=
EXTT10=
EXTT11=
EXTT12=
PLAYORDER=
